<?xml version="1.0" encoding="utf-8"?>
<!-- Svg Vector Icons : http://www.onlinewebfonts.com/icon -->
<!DOCTYPE svg PUBLIC "-//W3C//DTD SVG 1.1//EN" "http://www.w3.org/Graphics/SVG/1.1/DTD/svg11.dtd">
<svg version="1.1" xmlns="http://www.w3.org/2000/svg" xmlns:xlink="http://www.w3.org/1999/xlink" x="0px" y="0px" viewBox="0 0 1000 1000" enable-background="new 0 0 1000 1000" xml:space="preserve">
<metadata> Svg Vector Icons : http://www.onlinewebfonts.com/icon </metadata>
<g><path d="M863.1,148.5C851.8,94.8,834,33.8,805.4,17.3c-28.7-16.5-91.1-1.9-143.3,15.2C559,66.2,478.9,121.7,410.2,207c-88.4,109.7-120.5,194.1-131.8,234.5l-118.3,3.2l-35.5,339.8l171.1-103.2l188.7,109L480.6,990l276.5-200.7l-56.4-104c29.4-30,86.4-100,137.2-231.4C877.4,351.7,885.5,254.7,863.1,148.5z M583.4,765.6L266.8,582.8l-59.3,45.6l18-115l89.5,0.3l32.2,0.5l2.2-27c0.5-3.7,13.5-96.8,125.4-232.7c62.1-75.4,135.1-123.3,229.5-150.7c17.4-5.1,38.3-9.7,57.9-13.5c6.5,18.9,12.8,39.2,17.2,56.9c23.5,95.5,18.5,182.6-15.7,274.1c-61.7,164.9-135.9,222.7-138.8,225l-21.9,15.2l61.2,105.2l-90.6,73.1L583.4,765.6z"/><path d="M715.2,173.2c-42.1-24.3-96.2-9.8-120.5,32.3c-24.3,42.1-9.8,96.1,32.3,120.5c42.1,24.3,96.2,9.8,120.5-32.3C771.8,251.5,757.3,197.5,715.2,173.2L715.2,173.2z M654.2,278.7c-16.1-9.3-21.6-30-12.4-46.1c9.3-16.1,30-21.6,46.1-12.3c16.1,9.3,21.6,30,12.3,46.1C691,282.5,670.3,288,654.2,278.7L654.2,278.7z"/><path d="M418.6,780.7c0,0-12,48.5-37.9,65.7c-26,17.2-40.5,17.8-68.1,22.8c-9.5-26.4-16.2-39.3-14.3-70.4c1.9-31.1,37.9-65.7,37.9-65.7s-27.8-12.3-64.5,18.9c-59.1,75.2,6.9,176.2,6.9,176.2s120.5,6.7,156-82.1C443.2,798.6,418.6,780.7,418.6,780.7z"/></g>
</svg>